<?xml version="1.0" encoding="UTF-8"?>
<!DOCTYPE svg PUBLIC "-//W3C//DTD SVG 1.1//EN" "http://www.w3.org/Graphics/SVG/1.1/DTD/svg11.dtd">
<!-- Creator: CorelDRAW (Evaluation Version) -->
<svg xmlns="http://www.w3.org/2000/svg" xml:space="preserve" width="3.54331in" height="3.54331in" version="1.1" style="shape-rendering:geometricPrecision; text-rendering:geometricPrecision; image-rendering:optimizeQuality; fill-rule:evenodd; clip-rule:evenodd"
viewBox="0 0 3543.31 3543.31"
 xmlns:xlink="http://www.w3.org/1999/xlink"
 xmlns:xodm="http://www.corel.com/coreldraw/odm/2003">
 <defs>
  <style type="text/css">
   <![CDATA[
    .fil0 {fill:#00A1A9;fill-rule:nonzero}
   ]]>
  </style>
 </defs>
 <g id="Layer_x0020_1">
  <metadata id="CorelCorpID_0Corel-Layer"/>
  <path class="fil0" d="M1793.48 123.61c-921.97,-12.84 -1673.4,730.71 -1673.4,1649.73 0,666.09 348.05,1233.91 916.33,1494.47 -220.5,-137.74 -339.94,-376.13 -339.94,-654.71 0,-40.19 3.06,-79.66 8.96,-118.24 -141.6,-204.85 -205.51,-453.65 -205.51,-721.53 0,-714.1 589.36,-1290.58 1308.24,-1269.5 688.95,20.2 1240.99,597.1 1231.78,1286.31 -0.98,74.61 -8.68,149.12 -23.11,222.33 -14.07,71.33 -34.57,141.39 -61.06,209.1 -26.09,66.66 -57.97,131 -95.02,192.24 -36.85,60.93 -78.79,118.74 -125.05,172.85 -46.3,54.19 -96.92,104.67 -151.07,150.99 -54.41,46.53 -112.39,88.86 -173.19,126.64 -89.72,55.73 -180.89,109.3 -289.8,134.04 -109.28,24.81 -216.77,39.13 -328.25,39.13 -136.58,0 -262.11,-15.13 -329.66,-25.04 -72.76,-12.38 -148.11,-33.62 -206.91,-77.07 -108.05,-79.83 -174.77,-212.52 -161.52,-359.56 16.9,-187.58 166.22,-340.49 353.39,-361.37 241.5,-26.95 446.75,162.19 446.75,398.35 0,200.63 -116.4,338.11 -309.03,367.24 165.63,13.09 432.47,17.78 611.4,-52.17 53.61,-101.52 55.12,-182.03 55.35,-300.91 0.78,-389.21 -314.34,-742.7 -702.52,-770.77 -411.35,-29.72 -760.18,270.7 -808.74,662.89 -3.81,30.74 -5.98,61.97 -5.98,93.72 0,305.3 172.46,575.36 433.01,695.6 0.11,0.12 12.31,5.83 12.44,5.87 71.34,29.65 147.93,55.44 253.21,74.83 0.3,0.07 0.59,0.14 0.89,0.2 57.36,11.81 115.81,20.56 175.19,26.25 3.08,0.36 4.84,0.55 5.19,0.45 50.78,4.7 102.17,7.24 154.17,7.24 919.02,0 1662.56,-751.4 1649.73,-1673.38 -12.36,-888.64 -737.58,-1613.89 -1626.22,-1626.24z"/>
 </g>
</svg>
